<svg xmlns="http://www.w3.org/2000/svg" xmlns:xlink="http://www.w3.org/1999/xlink" width="100" zoomAndPan="magnify" viewBox="0 0 75 37.5" height="50" preserveAspectRatio="xMidYMid meet" version="1.0"><defs><g/></defs><g fill="#24c48a" fill-opacity="1"><g transform="translate(-0.633338, 28.013045)"><g><path d="M 2.5625 -20.867188 L 2.5625 0 L 5.574219 0 L 5.574219 -14.578125 L 15.652344 0 L 18.035156 0 L 18.035156 -20.867188 L 15.054688 -20.867188 L 15.054688 -6.171875 L 4.890625 -20.867188 Z M 2.5625 -20.867188 "/></g></g></g><g fill="#ffffff" fill-opacity="1"><g transform="translate(19.963135, 28.013045)"><g><path d="M 2.058594 -20.273438 C 2.058594 -19.140625 2.980469 -18.574219 3.875 -18.574219 C 4.800781 -18.574219 5.695312 -19.140625 5.695312 -20.273438 C 5.695312 -21.40625 4.800781 -21.941406 3.90625 -21.941406 C 2.980469 -21.941406 2.058594 -21.375 2.058594 -20.273438 Z M 2.414062 -16.308594 L 5.335938 -16.308594 L 5.335938 0 L 2.414062 0 Z M 2.414062 -16.308594 "/></g></g></g><g fill="#ffffff" fill-opacity="1"><g transform="translate(27.979823, 28.013045)"><g><path d="M 5.039062 -14.132812 L 5.039062 -20.867188 L 2.148438 -20.867188 L 2.148438 0 L 5.039062 0 L 5.039062 -8.765625 C 5.039062 -11.566406 6.707031 -13.773438 9.777344 -13.773438 C 13.296875 -13.773438 14.101562 -11.6875 14.101562 -8.644531 L 14.101562 0 L 17.023438 0 L 17.023438 -8.675781 C 17.023438 -13.296875 14.90625 -16.367188 9.988281 -16.367188 C 7.960938 -16.367188 6.261719 -15.859375 5.039062 -14.132812 Z M 5.039062 -14.132812 "/></g></g></g><g fill="#ffffff" fill-opacity="1"><g transform="translate(47.291399, 28.013045)"><g><path d="M 18.992188 0 L 18.992188 -16.128906 L 16.070312 -16.128906 L 16.097656 -13.980469 C 14.667969 -15.917969 12.253906 -16.398438 10.253906 -16.398438 C 4.800781 -16.398438 1.640625 -12.492188 1.640625 -8.140625 C 1.640625 -3.695312 4.679688 0.269531 10.316406 0.269531 C 12.3125 0.238281 14.90625 -0.417969 16.070312 -2.175781 L 16.070312 0 Z M 16.070312 -8.078125 C 16.070312 -4.203125 12.9375 -2.324219 10.253906 -2.324219 C 6.679688 -2.324219 4.5625 -5.097656 4.5625 -8.140625 C 4.5625 -11.328125 6.707031 -13.832031 10.253906 -13.832031 C 13 -13.832031 16.070312 -11.925781 16.070312 -8.078125 Z M 16.070312 -8.078125 "/></g></g></g><g fill="#ffffff" fill-opacity="1"><g transform="translate(68.212267, 28.013045)"><g><path d="M 2.234375 0 L 5.15625 0 L 5.15625 -20.867188 L 2.234375 -20.867188 Z M 2.234375 0 "/></g></g></g></svg>