<svg id="SvgjsSvg1051" width="288" height="288" xmlns="http://www.w3.org/2000/svg" version="1.1" xmlns:xlink="http://www.w3.org/1999/xlink" xmlns:svgjs="http://svgjs.com/svgjs"><defs id="SvgjsDefs1052"></defs><g id="SvgjsG1053"><svg xmlns="http://www.w3.org/2000/svg" viewBox="0 0 32 32" width="288" height="288"><g data-name="normal smile smiley emoji" fill="#ffffff" class="color000 svgShape"><rect width="32" height="32" opacity="0" fill="#ffffff" class="color000 svgShape"></rect><path d="M28,3H20a1,1,0,0,0,0,2h7V16A11,11,0,0,1,5,16V5h7a1,1,0,0,0,0-2H4A1,1,0,0,0,3,4V16a13,13,0,0,0,26,0V4A1,1,0,0,0,28,3Z" fill="#ffffff" class="color000 svgShape"></path><path d="M10.25 17.71a1 1 0 0 0-1.92.58 8 8 0 0 0 15.34 0 1 1 0 1 0-1.92-.58 6 6 0 0 1-11.5 0zM10.5 8A3.5 3.5 0 1 0 14 11.5 3.5 3.5 0 0 0 10.5 8zm0 5A1.5 1.5 0 1 1 12 11.5 1.5 1.5 0 0 1 10.5 13zM25 11.5A3.5 3.5 0 1 0 21.5 15 3.5 3.5 0 0 0 25 11.5zm-5 0A1.5 1.5 0 1 1 21.5 13 1.5 1.5 0 0 1 20 11.5z" fill="#ffffff" class="color000 svgShape"></path></g></svg></g></svg>