<svg id="SvgjsSvg1011" width="288" height="288" xmlns="http://www.w3.org/2000/svg" version="1.1" xmlns:xlink="http://www.w3.org/1999/xlink" xmlns:svgjs="http://svgjs.com/svgjs"><defs id="SvgjsDefs1012"></defs><g id="SvgjsG1013"><svg xmlns="http://www.w3.org/2000/svg" viewBox="0 0 32 32" width="288" height="288"><path d="M13.788 25.588c.04.032.064.076.106.106.06.04.128.048.192.076.076.036.15.07.23.092.078.02.154.03.234.036.114.012.224.012.336-.004.046-.008.09-.02.136-.032.138-.034.266-.088.392-.164.022-.014.04-.03.062-.044.082-.056.17-.098.24-.174.05-.054.072-.124.112-.184.002-.002.006-.004.006-.006L27.752 6.188a1.4 1.4 0 1 0-2.344-1.532L14.4 22.298l-6.088-5.922a1.398 1.398 0 1 0-1.9 2.054l7.324 7.126c.014.014.034.018.052.032z" fill="#ffffff" class="color000 svgShape"></path></svg></g></svg>