<svg id="SvgjsSvg1021" width="288" height="288" xmlns="http://www.w3.org/2000/svg" version="1.1" xmlns:xlink="http://www.w3.org/1999/xlink" xmlns:svgjs="http://svgjs.com/svgjs"><defs id="SvgjsDefs1022"></defs><g id="SvgjsG1023" transform="matrix(1,0,0,1,0,0)"><svg xmlns="http://www.w3.org/2000/svg" preserveAspectRatio="xMinYMin meet" viewBox="0 0 256 205" width="288" height="288"><path fill="#c7cdd0" d="M27.008 53.504l-24.64 40.32C.768 96.32 0 99.264 0 102.4s.768 6.08 2.368 8.64l57.344 93.76h59.712L27.008 53.504zM59.712 0L33.92 42.112l29.888 48.896L119.488 0H59.712zm169.28 151.296l24.64-40.32c1.6-2.496 2.368-5.44 2.368-8.576s-.768-6.08-2.368-8.64L196.288 0h-59.712l92.416 151.296zM196.288 204.8l25.792-42.112-29.888-48.896-55.68 91.008h59.776z" class="colorC7CDD0 svgShape"></path></svg></g></svg>