<svg id="SvgjsSvg1141" width="288" height="288" xmlns="http://www.w3.org/2000/svg" version="1.1" xmlns:xlink="http://www.w3.org/1999/xlink" xmlns:svgjs="http://svgjs.com/svgjs"><defs id="SvgjsDefs1142"></defs><g id="SvgjsG1143"><svg xmlns="http://www.w3.org/2000/svg" fill="none" viewBox="0 0 32 32" width="288" height="288"><path fill="#ffffff" d="M17.6504 18.3477C18.0736 18.7578 18.2852 19.2624 18.2852 19.8613C18.2852 20.571 18.041 21.1309 17.5527 21.541C17.0645 21.9512 16.3939 22.1562 15.541 22.1562C14.6686 22.1562 13.9948 21.9121 13.5195 21.4238C13.0443 20.9355 12.8066 20.2389 12.8066 19.334H11C11 20.623 11.3418 21.6452 12.0254 22.4004C12.7155 23.1491 13.666 23.5788 14.877 23.6895V25.5547H16.3223V23.6895C17.5137 23.5658 18.4382 23.1686 19.0957 22.498C19.7598 21.8275 20.0918 20.9421 20.0918 19.8418C20.0918 19.1517 19.9583 18.5495 19.6914 18.0352C19.431 17.5208 19.0208 17.0716 18.4609 16.6875C17.9076 16.2969 17.1328 15.9421 16.1367 15.623C15.1471 15.2975 14.4342 14.9395 13.998 14.5488C13.5684 14.1517 13.3535 13.6211 13.3535 12.957C13.3535 12.2409 13.5586 11.6842 13.9688 11.2871C14.3789 10.8835 14.9714 10.6816 15.7461 10.6816C16.4883 10.6816 17.0775 10.9518 17.5137 11.4922C17.9499 12.0326 18.168 12.7617 18.168 13.6797H19.9648C19.9648 12.3451 19.6589 11.2936 19.0469 10.5254C18.4414 9.75716 17.5918 9.29818 16.498 9.14844V7H15.043V9.13867C13.9557 9.26888 13.0996 9.67578 12.4746 10.3594C11.8561 11.043 11.5469 11.9186 11.5469 12.9863C11.5469 14.0345 11.8626 14.9004 12.4941 15.584C13.1322 16.2611 14.1445 16.8112 15.5312 17.2344C16.5273 17.5664 17.2337 17.9375 17.6504 18.3477Z" class="color000 svgShape"></path><path fill="#ffffff" fill-rule="evenodd" d="M16 0C7.16344 0 0 7.16344 0 16C0 24.8366 7.16344 32 16 32C24.8366 32 32 24.8366 32 16C32 7.16344 24.8366 0 16 0ZM2 16C2 8.26801 8.26801 2 16 2C23.732 2 30 8.26801 30 16C30 23.732 23.732 30 16 30C8.26801 30 2 23.732 2 16Z" clip-rule="evenodd" class="color000 svgShape"></path></svg></g></svg>