<svg xmlns="http://www.w3.org/2000/svg" xmlns:xlink="http://www.w3.org/1999/xlink" width="113" zoomAndPan="magnify" viewBox="0 0 84.75 49.499998" height="66" preserveAspectRatio="xMidYMid meet" version="1.0"><defs><clipPath id="447c001f42"><path d="M 7 5 L 80 5 L 80 47 L 7 47 Z M 7 5 " clip-rule="nonzero"/></clipPath><clipPath id="b685212119"><path d="M 0.398438 19.265625 L 76.085938 0.570312 L 83.382812 30.125 L 7.695312 48.820312 Z M 0.398438 19.265625 " clip-rule="nonzero"/></clipPath><clipPath id="aadb04c007"><path d="M 0.398438 19.265625 L 76.085938 0.570312 L 83.382812 30.125 L 7.695312 48.820312 Z M 0.398438 19.265625 " clip-rule="nonzero"/></clipPath></defs><g clip-path="url(#447c001f42)"><g clip-path="url(#b685212119)"><g clip-path="url(#aadb04c007)"><path fill="#ffffff" d="M 78.960938 13.082031 C 78.699219 12.90625 78.445312 12.71875 78.207031 12.515625 C 78.085938 12.414062 77.96875 12.308594 77.855469 12.203125 C 77.800781 12.148438 77.703125 12.082031 77.667969 12.011719 C 77.691406 12.039062 77.71875 12.066406 77.746094 12.097656 C 77.714844 12.0625 77.683594 12.03125 77.652344 11.996094 C 77.230469 11.53125 76.871094 11.019531 76.558594 10.472656 C 76.554688 10.46875 76.554688 10.460938 76.550781 10.453125 C 76.511719 10.371094 76.46875 10.292969 76.429688 10.210938 C 76.363281 10.070312 76.300781 9.925781 76.242188 9.78125 C 76.121094 9.492188 76.023438 9.191406 75.9375 8.890625 C 75.921875 8.824219 75.902344 8.761719 75.886719 8.695312 C 75.882812 8.671875 75.875 8.648438 75.871094 8.621094 C 75.871094 8.621094 75.867188 8.621094 75.867188 8.617188 C 75.839844 8.464844 75.8125 8.308594 75.789062 8.15625 C 75.746094 7.84375 75.722656 7.53125 75.714844 7.21875 C 75.714844 7.195312 75.710938 7.171875 75.710938 7.148438 C 75.789062 6.933594 75.867188 6.71875 75.941406 6.503906 C 76.136719 5.957031 75.929688 5.3125 75.355469 5.097656 C 74.808594 4.898438 74.136719 5.21875 73.941406 5.765625 C 73.878906 5.949219 73.808594 6.128906 73.746094 6.3125 C 73.734375 6.320312 73.726562 6.328125 73.71875 6.335938 C 73.675781 6.375 73.628906 6.414062 73.585938 6.453125 C 73.574219 6.464844 73.503906 6.527344 73.480469 6.546875 C 73.234375 6.753906 72.984375 6.957031 72.734375 7.15625 C 72.214844 7.5625 71.679688 7.941406 71.125 8.296875 C 70.585938 8.644531 70.027344 8.96875 69.457031 9.269531 C 69.386719 9.304688 69.320312 9.339844 69.25 9.375 C 69.160156 9.417969 69.160156 9.421875 69.242188 9.378906 C 69.207031 9.398438 69.171875 9.414062 69.136719 9.429688 C 68.988281 9.503906 68.835938 9.574219 68.683594 9.644531 C 68.378906 9.785156 68.074219 9.917969 67.761719 10.042969 C 67.378906 10.203125 67.0625 10.640625 67.21875 11.066406 C 67.367188 11.464844 67.824219 11.707031 68.238281 11.539062 C 69.800781 10.902344 71.28125 10.097656 72.660156 9.136719 C 72.253906 10.144531 71.828125 11.140625 71.375 12.125 C 70.40625 14.238281 69.398438 16.183594 68.242188 18.085938 C 67.0625 20.03125 65.757812 21.902344 64.3125 23.664062 C 62.832031 25.464844 61.371094 26.976562 59.574219 28.503906 C 56.082031 31.476562 52.003906 33.832031 47.613281 35.039062 C 46.480469 35.347656 45.332031 35.585938 44.171875 35.75 C 43.664062 35.820312 43.15625 35.875 42.648438 35.914062 C 42.347656 35.933594 42.40625 35.929688 42.121094 35.9375 C 41.871094 35.945312 41.621094 35.949219 41.367188 35.949219 C 40.378906 35.941406 39.390625 35.859375 38.417969 35.691406 C 38.296875 35.667969 38.171875 35.648438 38.050781 35.621094 C 38 35.613281 37.800781 35.570312 37.8125 35.574219 C 37.71875 35.554688 37.363281 35.464844 37.179688 35.414062 C 36.707031 35.285156 36.238281 35.132812 35.78125 34.953125 C 35.382812 34.792969 34.992188 34.617188 34.609375 34.417969 C 36.140625 32.632812 37.523438 30.71875 38.769531 28.726562 C 40.058594 26.660156 41.285156 24.503906 42.238281 22.257812 C 43.183594 20.039062 43.757812 17.535156 43.011719 15.171875 C 42.371094 13.15625 40.746094 11.414062 38.628906 11.007812 C 36 10.503906 33.734375 12.402344 32.273438 14.371094 C 31.519531 15.386719 30.886719 16.503906 30.285156 17.621094 C 29.699219 18.707031 29.179688 19.832031 28.769531 21 C 27.921875 23.429688 27.53125 26.054688 27.976562 28.609375 C 28.398438 31.03125 29.53125 33.214844 31.363281 34.863281 C 31.027344 35.210938 30.679688 35.550781 30.277344 35.9375 C 28.613281 37.523438 26.804688 38.964844 24.863281 40.195312 C 20.972656 42.660156 16.390625 44.28125 11.710938 44.601562 C 10.632812 44.675781 9.453125 44.660156 8.328125 44.570312 C 7.734375 44.527344 7.1875 44.992188 7.113281 45.578125 C 7.039062 46.15625 7.449219 46.71875 8.042969 46.761719 C 13.167969 47.160156 18.332031 45.984375 22.925781 43.71875 C 26.753906 41.832031 30.140625 39.203125 33.074219 36.121094 C 36.09375 37.929688 39.902344 38.355469 43.339844 38.042969 C 48.304688 37.589844 53.0625 35.648438 57.207031 32.9375 C 61.351562 30.230469 64.890625 26.648438 67.773438 22.640625 C 70.464844 18.902344 72.621094 14.789062 74.386719 10.539062 C 75.058594 12.152344 76.195312 13.582031 77.648438 14.542969 C 78.078125 14.828125 78.703125 14.871094 79.0625 14.429688 C 79.371094 14.054688 79.414062 13.382812 78.957031 13.082031 Z M 39.023438 13.46875 C 39.0625 13.488281 39.09375 13.507812 39.023438 13.46875 Z M 38.347656 13.195312 Z M 29.96875 25.652344 C 30.105469 23.3125 30.84375 21.207031 31.902344 19.09375 C 32.835938 17.234375 34.042969 15.046875 35.761719 13.808594 C 36.488281 13.28125 37.316406 13.015625 38.277344 13.183594 C 38.320312 13.195312 38.359375 13.207031 38.398438 13.21875 C 38.503906 13.253906 38.609375 13.285156 38.714844 13.328125 C 38.800781 13.363281 38.886719 13.40625 38.972656 13.441406 C 38.980469 13.445312 38.992188 13.453125 39.003906 13.457031 C 39.050781 13.484375 39.09375 13.511719 39.136719 13.539062 C 39.3125 13.648438 39.480469 13.773438 39.640625 13.90625 C 39.671875 13.933594 39.808594 14.0625 39.808594 14.058594 C 39.871094 14.125 39.929688 14.1875 39.988281 14.253906 C 40.128906 14.417969 40.257812 14.585938 40.378906 14.765625 C 40.445312 14.859375 40.503906 14.957031 40.566406 15.054688 C 40.601562 15.121094 40.636719 15.1875 40.667969 15.253906 C 40.761719 15.449219 40.847656 15.648438 40.921875 15.851562 C 40.957031 15.945312 40.988281 16.042969 41.019531 16.136719 C 41.035156 16.1875 41.050781 16.242188 41.0625 16.292969 C 41.066406 16.308594 41.070312 16.328125 41.074219 16.351562 C 41.28125 17.410156 41.222656 18.304688 40.976562 19.378906 C 40.964844 19.441406 40.949219 19.5 40.933594 19.5625 C 40.941406 19.535156 40.960938 19.457031 40.929688 19.582031 C 40.890625 19.722656 40.851562 19.859375 40.808594 20 C 40.71875 20.277344 40.625 20.550781 40.519531 20.824219 C 40.320312 21.351562 40.09375 21.871094 39.855469 22.378906 C 39.605469 22.90625 39.34375 23.425781 39.074219 23.941406 C 38.949219 24.179688 38.824219 24.417969 38.695312 24.65625 C 38.636719 24.765625 38.578125 24.875 38.519531 24.984375 C 38.476562 25.058594 38.4375 25.128906 38.398438 25.203125 C 38.390625 25.21875 38.363281 25.269531 38.347656 25.292969 C 37.246094 27.257812 36.023438 29.152344 34.671875 30.953125 C 34.089844 31.726562 33.488281 32.476562 32.859375 33.210938 C 32.804688 33.164062 32.753906 33.117188 32.699219 33.070312 C 32.664062 33.035156 32.625 33 32.585938 32.964844 C 32.574219 32.953125 32.496094 32.875 32.460938 32.84375 C 32.421875 32.800781 32.339844 32.714844 32.316406 32.691406 C 32.234375 32.605469 32.15625 32.515625 32.078125 32.421875 C 31.917969 32.238281 31.765625 32.050781 31.625 31.851562 C 30.34375 30.097656 29.84375 27.796875 29.96875 25.652344 Z M 29.96875 25.652344 " fill-opacity="1" fill-rule="nonzero"/><path fill="#ffffff" d="M 78.960938 13.082031 C 78.699219 12.90625 78.445312 12.71875 78.207031 12.515625 C 78.085938 12.414062 77.96875 12.308594 77.855469 12.203125 C 77.800781 12.148438 77.703125 12.082031 77.667969 12.011719 C 77.691406 12.039062 77.71875 12.066406 77.746094 12.097656 C 77.714844 12.0625 77.683594 12.03125 77.652344 11.996094 C 77.230469 11.53125 76.871094 11.019531 76.558594 10.472656 C 76.554688 10.46875 76.554688 10.460938 76.550781 10.453125 C 76.511719 10.371094 76.46875 10.292969 76.429688 10.210938 C 76.363281 10.070312 76.300781 9.925781 76.242188 9.78125 C 76.121094 9.492188 76.023438 9.191406 75.9375 8.890625 C 75.921875 8.824219 75.902344 8.761719 75.886719 8.695312 C 75.882812 8.671875 75.875 8.648438 75.871094 8.621094 C 75.871094 8.621094 75.867188 8.621094 75.867188 8.617188 C 75.839844 8.464844 75.8125 8.308594 75.789062 8.15625 C 75.746094 7.84375 75.722656 7.53125 75.714844 7.21875 C 75.714844 7.195312 75.710938 7.171875 75.710938 7.148438 C 75.789062 6.933594 75.867188 6.71875 75.941406 6.503906 C 76.136719 5.957031 75.929688 5.3125 75.355469 5.097656 C 74.808594 4.898438 74.136719 5.21875 73.941406 5.765625 C 73.878906 5.949219 73.808594 6.128906 73.746094 6.3125 C 73.734375 6.320312 73.726562 6.328125 73.71875 6.335938 C 73.675781 6.375 73.628906 6.414062 73.585938 6.453125 C 73.574219 6.464844 73.503906 6.527344 73.480469 6.546875 C 73.234375 6.753906 72.984375 6.957031 72.734375 7.15625 C 72.214844 7.5625 71.679688 7.941406 71.125 8.296875 C 70.585938 8.644531 70.027344 8.96875 69.457031 9.269531 C 69.386719 9.304688 69.320312 9.339844 69.25 9.375 C 69.160156 9.417969 69.160156 9.421875 69.242188 9.378906 C 69.207031 9.398438 69.171875 9.414062 69.136719 9.429688 C 68.988281 9.503906 68.835938 9.574219 68.683594 9.644531 C 68.378906 9.785156 68.074219 9.917969 67.761719 10.042969 C 67.378906 10.203125 67.0625 10.640625 67.21875 11.066406 C 67.367188 11.464844 67.824219 11.707031 68.238281 11.539062 C 69.800781 10.902344 71.28125 10.097656 72.660156 9.136719 C 72.253906 10.144531 71.828125 11.140625 71.375 12.125 C 70.40625 14.238281 69.398438 16.183594 68.242188 18.085938 C 67.0625 20.03125 65.757812 21.902344 64.3125 23.664062 C 62.832031 25.464844 61.371094 26.976562 59.574219 28.503906 C 56.082031 31.476562 52.003906 33.832031 47.613281 35.039062 C 46.480469 35.347656 45.332031 35.585938 44.171875 35.75 C 43.664062 35.820312 43.15625 35.875 42.648438 35.914062 C 42.347656 35.933594 42.40625 35.929688 42.121094 35.9375 C 41.871094 35.945312 41.621094 35.949219 41.367188 35.949219 C 40.378906 35.941406 39.390625 35.859375 38.417969 35.691406 C 38.296875 35.667969 38.171875 35.648438 38.050781 35.621094 C 38 35.613281 37.800781 35.570312 37.8125 35.574219 C 37.71875 35.554688 37.363281 35.464844 37.179688 35.414062 C 36.707031 35.285156 36.238281 35.132812 35.78125 34.953125 C 35.382812 34.792969 34.992188 34.617188 34.609375 34.417969 C 36.140625 32.632812 37.523438 30.71875 38.769531 28.726562 C 40.058594 26.660156 41.285156 24.503906 42.238281 22.257812 C 43.183594 20.039062 43.757812 17.535156 43.011719 15.171875 C 42.371094 13.15625 40.746094 11.414062 38.628906 11.007812 C 36 10.503906 33.734375 12.402344 32.273438 14.371094 C 31.519531 15.386719 30.886719 16.503906 30.285156 17.621094 C 29.699219 18.707031 29.179688 19.832031 28.769531 21 C 27.921875 23.429688 27.53125 26.054688 27.976562 28.609375 C 28.398438 31.03125 29.53125 33.214844 31.363281 34.863281 C 31.027344 35.210938 30.679688 35.550781 30.277344 35.9375 C 28.613281 37.523438 26.804688 38.964844 24.863281 40.195312 C 20.972656 42.660156 16.390625 44.28125 11.710938 44.601562 C 10.632812 44.675781 9.453125 44.660156 8.328125 44.570312 C 7.734375 44.527344 7.1875 44.992188 7.113281 45.578125 C 7.039062 46.15625 7.449219 46.71875 8.042969 46.761719 C 13.167969 47.160156 18.332031 45.984375 22.925781 43.71875 C 26.753906 41.832031 30.140625 39.203125 33.074219 36.121094 C 36.09375 37.929688 39.902344 38.355469 43.339844 38.042969 C 48.304688 37.589844 53.0625 35.648438 57.207031 32.9375 C 61.351562 30.230469 64.890625 26.648438 67.773438 22.640625 C 70.464844 18.902344 72.621094 14.789062 74.386719 10.539062 C 75.058594 12.152344 76.195312 13.582031 77.648438 14.542969 C 78.078125 14.828125 78.703125 14.871094 79.0625 14.429688 C 79.371094 14.054688 79.414062 13.382812 78.957031 13.082031 Z M 39.023438 13.46875 C 39.0625 13.488281 39.09375 13.507812 39.023438 13.46875 Z M 38.347656 13.195312 Z M 29.96875 25.652344 C 30.105469 23.3125 30.84375 21.207031 31.902344 19.09375 C 32.835938 17.234375 34.042969 15.046875 35.761719 13.808594 C 36.488281 13.28125 37.316406 13.015625 38.277344 13.183594 C 38.320312 13.195312 38.359375 13.207031 38.398438 13.21875 C 38.503906 13.253906 38.609375 13.285156 38.714844 13.328125 C 38.800781 13.363281 38.886719 13.40625 38.972656 13.441406 C 38.980469 13.445312 38.992188 13.453125 39.003906 13.457031 C 39.050781 13.484375 39.09375 13.511719 39.136719 13.539062 C 39.3125 13.648438 39.480469 13.773438 39.640625 13.90625 C 39.671875 13.933594 39.808594 14.0625 39.808594 14.058594 C 39.871094 14.125 39.929688 14.1875 39.988281 14.253906 C 40.128906 14.417969 40.257812 14.585938 40.378906 14.765625 C 40.445312 14.859375 40.503906 14.957031 40.566406 15.054688 C 40.601562 15.121094 40.636719 15.1875 40.667969 15.253906 C 40.761719 15.449219 40.847656 15.648438 40.921875 15.851562 C 40.957031 15.945312 40.988281 16.042969 41.019531 16.136719 C 41.035156 16.1875 41.050781 16.242188 41.0625 16.292969 C 41.066406 16.308594 41.070312 16.328125 41.074219 16.351562 C 41.28125 17.410156 41.222656 18.304688 40.976562 19.378906 C 40.964844 19.441406 40.949219 19.5 40.933594 19.5625 C 40.941406 19.535156 40.960938 19.457031 40.929688 19.582031 C 40.890625 19.722656 40.851562 19.859375 40.808594 20 C 40.71875 20.277344 40.625 20.550781 40.519531 20.824219 C 40.320312 21.351562 40.09375 21.871094 39.855469 22.378906 C 39.605469 22.90625 39.34375 23.425781 39.074219 23.941406 C 38.949219 24.179688 38.824219 24.417969 38.695312 24.65625 C 38.636719 24.765625 38.578125 24.875 38.519531 24.984375 C 38.476562 25.058594 38.4375 25.128906 38.398438 25.203125 C 38.390625 25.21875 38.363281 25.269531 38.347656 25.292969 C 37.246094 27.257812 36.023438 29.152344 34.671875 30.953125 C 34.089844 31.726562 33.488281 32.476562 32.859375 33.210938 C 32.804688 33.164062 32.753906 33.117188 32.699219 33.070312 C 32.664062 33.035156 32.625 33 32.585938 32.964844 C 32.574219 32.953125 32.496094 32.875 32.460938 32.84375 C 32.421875 32.800781 32.339844 32.714844 32.316406 32.691406 C 32.234375 32.605469 32.15625 32.515625 32.078125 32.421875 C 31.917969 32.238281 31.765625 32.050781 31.625 31.851562 C 30.34375 30.097656 29.84375 27.796875 29.96875 25.652344 Z M 29.96875 25.652344 " fill-opacity="1" fill-rule="nonzero"/></g></g></g></svg>