<svg id="SvgjsSvg1137" width="288" height="288" xmlns="http://www.w3.org/2000/svg" version="1.1" xmlns:xlink="http://www.w3.org/1999/xlink" xmlns:svgjs="http://svgjs.com/svgjs"><defs id="SvgjsDefs1138"></defs><g id="SvgjsG1139"><svg xmlns="http://www.w3.org/2000/svg" fill-rule="evenodd" clip-rule="evenodd" image-rendering="optimizeQuality" shape-rendering="geometricPrecision" text-rendering="geometricPrecision" viewBox="0 0 23 23.7" width="288" height="288"><path fill-rule="nonzero" d="M20.92 21.65c0 .56-.23 1.08-.61 1.44-.37.38-.88.61-1.44.61H2.04c-.56 0-1.07-.23-1.45-.61l-.01-.02C.21 22.7 0 22.2 0 21.65c0-.25.2-.44.44-.44h5.59c-.52-.3-1-.67-1.43-1.08a6.754 6.754 0 0 1-1.96-4.76V9.09c0-.18.1-.34.25-.41-.16-.26-.25-.57-.25-.92A1.76 1.76 0 0 1 4.4 6h4.17c.55-.48 1.18-.85 1.86-1.1a6.26 6.26 0 0 1 2.27-.42c1.13 0 2.22.31 3.18.85.95.55 1.77 1.35 2.34 2.32.12.21.05.49-.17.62-.21.11-.48.05-.6-.16a5.534 5.534 0 0 0-2.01-2.01c-.82-.47-1.77-.73-2.74-.73-.68 0-1.33.12-1.95.36-.59.23-1.15.56-1.64.97a.44.44 0 0 1-.36.18H4.4c-.24 0-.45.1-.62.27a.854.854 0 0 0 0 1.23c.17.17.38.27.62.27h.39c.24 0 .45.19.45.44v4.14c0 .17.07.32.19.44.11.11.26.19.44.19.16 0 .31-.07.43-.17l.01-.02c.11-.12.19-.27.19-.44v-1.67c0-.41.16-.79.44-1.06v-.01c.28-.27.65-.44 1.07-.44.42 0 .8.17 1.07.44v.01c.27.27.44.65.44 1.06 0 .25-.2.46-.44.46-.25 0-.45-.21-.45-.46 0-.16-.06-.33-.18-.44a.628.628 0 0 0-1.07.44v1.67c0 .41-.16.79-.44 1.07l-.03.02c-.27.27-.64.43-1.04.43a1.52 1.52 0 0 1-1.52-1.52v-3.7h-.83v5.84c0 1.6.66 3.07 1.72 4.13 1.06 1.04 2.52 1.71 4.12 1.71h2.2c1.6 0 3.06-.67 4.11-1.71a5.837 5.837 0 0 0 1.71-4.13V9.53H8.45c-.24 0-.44-.2-.44-.44 0-.25.2-.44.44-.44h9.39c.24 0 .44.19.44.44v.64c.04-.01.09-.01.13-.02h.02c.22-.04.43-.05.64-.05A3.905 3.905 0 0 1 23 13.58c0 1.09-.44 2.07-1.15 2.77-.71.72-1.69 1.15-2.78 1.15-.26 0-.51-.02-.77-.07-.11-.01-.21-.04-.32-.08a6.778 6.778 0 0 1-1.68 2.78c-.42.41-.9.78-1.41 1.08h5.59c.23 0 .44.19.44.44zM7.03.12c.25 0 .44.2.44.45 0 .24-.19.44-.44.44-.12 0-.23-.01-.34-.05a.988.988 0 0 1-.33-.15c-.2-.12-.27-.4-.13-.6.13-.22.41-.27.61-.14.04.02.06.04.09.04.03.01.06.01.1.01zm2.85 2.07c.25 0 .44.2.44.44 0 .25-.19.45-.44.45-.34 0-.66-.14-.87-.36-.23-.23-.37-.53-.37-.88s.14-.65.37-.88c.21-.22.53-.36.87-.36.11 0 .24.02.35.05.11.04.22.09.32.15.2.14.26.4.13.62-.13.2-.41.26-.61.13-.03-.02-.07-.03-.09-.04-.03-.02-.06-.02-.1-.02-.1 0-.18.04-.24.11a.31.31 0 0 0-.1.24c0 .1.03.18.1.25.06.06.14.1.24.1zM5.77 3.83c.15.19.11.47-.09.62-.19.15-.48.11-.62-.09-.09-.11-.17-.25-.22-.39a1.416 1.416 0 0 1 .34-1.43c.26-.25.6-.4.99-.4.38 0 .73.15.98.4.26.25.41.59.41.99 0 .13-.03.29-.08.42-.04.14-.1.27-.19.4-.15.18-.43.24-.62.08a.424.424 0 0 1-.1-.61c.03-.04.05-.09.08-.14.01-.05.01-.1.01-.15 0-.14-.05-.27-.14-.36a.49.49 0 0 0-.35-.15c-.14 0-.27.06-.35.15a.45.45 0 0 0-.16.36c0 .05.02.11.03.16.01.04.04.09.08.14zm6 3.39a.446.446 0 0 1 0-.89h.06a.446.446 0 0 1 0 .89h-.06zm2.38.54c-.23 0-.44-.19-.44-.44 0-.24.21-.44.44-.44h.07c.25 0 .44.2.44.44 0 .25-.19.44-.44.44h-.07zm-7.7 1.77c-.26 0-.46-.2-.46-.44 0-.25.2-.44.46-.44h.05a.44.44 0 1 1 0 .88h-.05zm11.92 2.91c-.04.02-.07.03-.09.04v2.89c0 .38-.04.76-.1 1.11.1.04.2.06.29.08a3.015 3.015 0 0 0 2.75-.84c.55-.54.89-1.3.89-2.14 0-.83-.34-1.6-.89-2.15a3.048 3.048 0 0 0-2.65-.85l-.01.01c-.09.01-.19.02-.28.05v.86c.06-.03.11-.05.18-.07.2-.06.4-.08.61-.08.62 0 1.18.25 1.58.65l.03.03c.39.4.63.94.63 1.55 0 .47-.15.92-.42 1.29l-.02.02c-.26.37-.62.65-1.06.8a.46.46 0 0 1-.57-.28.46.46 0 0 1 .28-.57c.26-.09.47-.25.63-.47l.02-.01c.15-.23.24-.49.24-.78 0-.37-.14-.69-.36-.93l-.03-.02a1.346 1.346 0 0 0-1.31-.34h-.01c-.12.03-.23.08-.33.15zm-3.5-.34c-.25 0-.44-.2-.44-.44 0-.25.19-.44.44-.44h1.04c.24 0 .44.19.44.44 0 .24-.2.44-.44.44h-1.04zm-4.19 0a.45.45 0 0 1-.44-.44c0-.25.21-.44.44-.44h2.4c.25 0 .46.19.46.44 0 .24-.21.44-.46.44h-2.4zm9 10.37c.11-.11.2-.24.25-.37H.97c.06.13.14.25.24.35l.01.02c.22.21.51.34.82.34h16.83c.32 0 .61-.13.81-.34z" fill="#ffffff" class="color000 svgShape"></path></svg></g></svg>